<mxfile host="app.diagrams.net" agent="Mozilla/5.0 (Windows NT 10.0; Win64; x64) AppleWebKit/537.36 (KHTML, like Gecko) Chrome/128.0.0.0 Safari/537.36 Edg/128.0.0.0" version="24.7.12">
  <diagram name="Página-1" id="T219Hf-lqjTi__grqgV8">
    <mxGraphModel grid="1" page="1" gridSize="10" guides="1" tooltips="1" connect="1" arrows="1" fold="1" pageScale="1" pageWidth="827" pageHeight="1169" math="0" shadow="0">
      <root>
        <mxCell id="0" />
        <mxCell id="1" parent="0" />
        <mxCell id="vQDLI2uZCtYbKvxVfyRI-1" value="" style="rounded=0;whiteSpace=wrap;html=1;align=center;" vertex="1" parent="1">
          <mxGeometry x="207" y="120" width="823" height="640" as="geometry" />
        </mxCell>
        <mxCell id="vQDLI2uZCtYbKvxVfyRI-2" value="Conductor &lt;br&gt;&lt;div&gt;(sin registrar)&lt;/div&gt;" style="shape=umlActor;verticalLabelPosition=bottom;verticalAlign=top;html=1;outlineConnect=0;" vertex="1" parent="1">
          <mxGeometry x="88" y="376" width="30" height="60" as="geometry" />
        </mxCell>
        <mxCell id="vQDLI2uZCtYbKvxVfyRI-4" value="&lt;h1 style=&quot;margin-top: 0px;&quot;&gt;&lt;font style=&quot;font-size: 14px;&quot;&gt;Iniciar Sesión&lt;/font&gt;&lt;/h1&gt;" style="text;html=1;whiteSpace=wrap;overflow=hidden;rounded=0;align=center;" vertex="1" parent="1">
          <mxGeometry x="535.5" y="140" width="166" height="40" as="geometry" />
        </mxCell>
        <mxCell id="vQDLI2uZCtYbKvxVfyRI-18" value="" style="endArrow=none;html=1;rounded=0;exitX=0.5;exitY=0.5;exitDx=0;exitDy=0;exitPerimeter=0;entryX=0;entryY=0.5;entryDx=0;entryDy=0;" edge="1" parent="1" source="vQDLI2uZCtYbKvxVfyRI-2" target="vQDLI2uZCtYbKvxVfyRI-19">
          <mxGeometry width="50" height="50" relative="1" as="geometry">
            <mxPoint x="150" y="500" as="sourcePoint" />
            <mxPoint x="260" y="400" as="targetPoint" />
          </mxGeometry>
        </mxCell>
        <mxCell id="vQDLI2uZCtYbKvxVfyRI-19" value="Registrar Usuario" style="ellipse;whiteSpace=wrap;html=1;" vertex="1" parent="1">
          <mxGeometry x="270" y="310" width="90" height="60" as="geometry" />
        </mxCell>
        <mxCell id="vQDLI2uZCtYbKvxVfyRI-20" value="Iniciar Sesión" style="ellipse;whiteSpace=wrap;html=1;" vertex="1" parent="1">
          <mxGeometry x="335.5" y="480" width="90" height="60" as="geometry" />
        </mxCell>
        <mxCell id="vQDLI2uZCtYbKvxVfyRI-21" value="Recuperar Contraseña" style="ellipse;whiteSpace=wrap;html=1;" vertex="1" parent="1">
          <mxGeometry x="335.5" y="620" width="90" height="60" as="geometry" />
        </mxCell>
        <mxCell id="vQDLI2uZCtYbKvxVfyRI-25" value="Completar formulario de registro" style="ellipse;whiteSpace=wrap;html=1;" vertex="1" parent="1">
          <mxGeometry x="470" y="240" width="90" height="60" as="geometry" />
        </mxCell>
        <mxCell id="vQDLI2uZCtYbKvxVfyRI-28" value="" style="endArrow=classic;html=1;rounded=0;exitX=1;exitY=0;exitDx=0;exitDy=0;dashed=1;entryX=0;entryY=0.5;entryDx=0;entryDy=0;" edge="1" parent="1" source="vQDLI2uZCtYbKvxVfyRI-19" target="vQDLI2uZCtYbKvxVfyRI-25">
          <mxGeometry relative="1" as="geometry">
            <mxPoint x="390" y="370" as="sourcePoint" />
            <mxPoint x="490" y="370" as="targetPoint" />
          </mxGeometry>
        </mxCell>
        <mxCell id="vQDLI2uZCtYbKvxVfyRI-29" value="&amp;lt;include&amp;gt;" style="edgeLabel;resizable=0;html=1;;align=center;verticalAlign=middle;" connectable="0" vertex="1" parent="vQDLI2uZCtYbKvxVfyRI-28">
          <mxGeometry relative="1" as="geometry">
            <mxPoint x="4" as="offset" />
          </mxGeometry>
        </mxCell>
        <mxCell id="vQDLI2uZCtYbKvxVfyRI-33" value="Completar formulario inicio sesión" style="ellipse;whiteSpace=wrap;html=1;" vertex="1" parent="1">
          <mxGeometry x="550" y="430" width="90" height="60" as="geometry" />
        </mxCell>
        <mxCell id="vQDLI2uZCtYbKvxVfyRI-36" value="" style="endArrow=classic;html=1;rounded=0;entryX=0.5;entryY=1;entryDx=0;entryDy=0;exitX=0;exitY=0;exitDx=0;exitDy=0;dashed=1;" edge="1" parent="1" source="vQDLI2uZCtYbKvxVfyRI-20" target="vQDLI2uZCtYbKvxVfyRI-19">
          <mxGeometry relative="1" as="geometry">
            <mxPoint x="403" y="380" as="sourcePoint" />
            <mxPoint x="280" y="419" as="targetPoint" />
          </mxGeometry>
        </mxCell>
        <mxCell id="vQDLI2uZCtYbKvxVfyRI-37" value="&amp;lt;extend&amp;gt;" style="edgeLabel;resizable=0;html=1;;align=center;verticalAlign=middle;" connectable="0" vertex="1" parent="vQDLI2uZCtYbKvxVfyRI-36">
          <mxGeometry relative="1" as="geometry">
            <mxPoint x="4" as="offset" />
          </mxGeometry>
        </mxCell>
        <mxCell id="vQDLI2uZCtYbKvxVfyRI-38" value="" style="endArrow=classic;html=1;rounded=0;exitX=1;exitY=0.5;exitDx=0;exitDy=0;dashed=1;entryX=0;entryY=0.5;entryDx=0;entryDy=0;" edge="1" parent="1" source="vQDLI2uZCtYbKvxVfyRI-20" target="vQDLI2uZCtYbKvxVfyRI-33">
          <mxGeometry relative="1" as="geometry">
            <mxPoint x="357" y="329" as="sourcePoint" />
            <mxPoint x="480" y="290" as="targetPoint" />
          </mxGeometry>
        </mxCell>
        <mxCell id="vQDLI2uZCtYbKvxVfyRI-39" value="&amp;lt;include&amp;gt;" style="edgeLabel;resizable=0;html=1;;align=center;verticalAlign=middle;" connectable="0" vertex="1" parent="vQDLI2uZCtYbKvxVfyRI-38">
          <mxGeometry relative="1" as="geometry">
            <mxPoint x="4" as="offset" />
          </mxGeometry>
        </mxCell>
        <mxCell id="vQDLI2uZCtYbKvxVfyRI-40" value="Conductor &lt;br&gt;&lt;div&gt;(registrado)&lt;/div&gt;" style="shape=umlActor;verticalLabelPosition=bottom;verticalAlign=top;html=1;outlineConnect=0;" vertex="1" parent="1">
          <mxGeometry x="88" y="566" width="30" height="60" as="geometry" />
        </mxCell>
        <mxCell id="vQDLI2uZCtYbKvxVfyRI-41" value="" style="endArrow=none;html=1;rounded=0;exitX=0.5;exitY=0.5;exitDx=0;exitDy=0;exitPerimeter=0;entryX=0;entryY=0.5;entryDx=0;entryDy=0;" edge="1" parent="1" source="vQDLI2uZCtYbKvxVfyRI-40" target="vQDLI2uZCtYbKvxVfyRI-20">
          <mxGeometry width="50" height="50" relative="1" as="geometry">
            <mxPoint x="75" y="450" as="sourcePoint" />
            <mxPoint x="280" y="350" as="targetPoint" />
          </mxGeometry>
        </mxCell>
        <mxCell id="vQDLI2uZCtYbKvxVfyRI-42" value="" style="endArrow=none;html=1;rounded=0;exitX=0.5;exitY=0.5;exitDx=0;exitDy=0;exitPerimeter=0;entryX=0;entryY=0.5;entryDx=0;entryDy=0;" edge="1" parent="1" source="vQDLI2uZCtYbKvxVfyRI-40" target="vQDLI2uZCtYbKvxVfyRI-21">
          <mxGeometry width="50" height="50" relative="1" as="geometry">
            <mxPoint x="75" y="640" as="sourcePoint" />
            <mxPoint x="346" y="520" as="targetPoint" />
          </mxGeometry>
        </mxCell>
        <mxCell id="vQDLI2uZCtYbKvxVfyRI-43" value="Responder preguntas clave" style="ellipse;whiteSpace=wrap;html=1;" vertex="1" parent="1">
          <mxGeometry x="550" y="570" width="100" height="70" as="geometry" />
        </mxCell>
        <mxCell id="vQDLI2uZCtYbKvxVfyRI-44" value="" style="endArrow=classic;html=1;rounded=0;exitX=1;exitY=0.5;exitDx=0;exitDy=0;dashed=1;entryX=0;entryY=0.5;entryDx=0;entryDy=0;" edge="1" parent="1" source="vQDLI2uZCtYbKvxVfyRI-21" target="vQDLI2uZCtYbKvxVfyRI-43">
          <mxGeometry relative="1" as="geometry">
            <mxPoint x="435" y="520" as="sourcePoint" />
            <mxPoint x="560" y="470" as="targetPoint" />
          </mxGeometry>
        </mxCell>
        <mxCell id="vQDLI2uZCtYbKvxVfyRI-45" value="&amp;lt;include&amp;gt;" style="edgeLabel;resizable=0;html=1;;align=center;verticalAlign=middle;" connectable="0" vertex="1" parent="vQDLI2uZCtYbKvxVfyRI-44">
          <mxGeometry relative="1" as="geometry">
            <mxPoint x="4" as="offset" />
          </mxGeometry>
        </mxCell>
        <mxCell id="vOPPiTswCpq5w0hIhfVt-1" value="Verificar información" style="ellipse;whiteSpace=wrap;html=1;" vertex="1" parent="1">
          <mxGeometry x="660" y="220" width="90" height="60" as="geometry" />
        </mxCell>
        <mxCell id="vOPPiTswCpq5w0hIhfVt-3" value="" style="endArrow=classic;html=1;rounded=0;exitX=1;exitY=0.5;exitDx=0;exitDy=0;dashed=1;entryX=0;entryY=0.5;entryDx=0;entryDy=0;" edge="1" parent="1" source="vQDLI2uZCtYbKvxVfyRI-25" target="vOPPiTswCpq5w0hIhfVt-1">
          <mxGeometry relative="1" as="geometry">
            <mxPoint x="357" y="329" as="sourcePoint" />
            <mxPoint x="480" y="280" as="targetPoint" />
          </mxGeometry>
        </mxCell>
        <mxCell id="vOPPiTswCpq5w0hIhfVt-4" value="&amp;lt;include&amp;gt;" style="edgeLabel;resizable=0;html=1;;align=center;verticalAlign=middle;" connectable="0" vertex="1" parent="vOPPiTswCpq5w0hIhfVt-3">
          <mxGeometry relative="1" as="geometry">
            <mxPoint x="-5" as="offset" />
          </mxGeometry>
        </mxCell>
        <mxCell id="vOPPiTswCpq5w0hIhfVt-5" value="Verificar información" style="ellipse;whiteSpace=wrap;html=1;" vertex="1" parent="1">
          <mxGeometry x="737" y="400" width="90" height="60" as="geometry" />
        </mxCell>
        <mxCell id="vOPPiTswCpq5w0hIhfVt-6" value="" style="endArrow=classic;html=1;rounded=0;dashed=1;entryX=0;entryY=0.5;entryDx=0;entryDy=0;" edge="1" parent="1">
          <mxGeometry relative="1" as="geometry">
            <mxPoint x="310" y="100" as="sourcePoint" />
            <mxPoint x="400" y="70" as="targetPoint" />
          </mxGeometry>
        </mxCell>
        <mxCell id="vOPPiTswCpq5w0hIhfVt-7" value="&amp;lt;include&amp;gt;" style="edgeLabel;resizable=0;html=1;;align=center;verticalAlign=middle;" connectable="0" vertex="1" parent="vOPPiTswCpq5w0hIhfVt-6">
          <mxGeometry relative="1" as="geometry">
            <mxPoint x="4" as="offset" />
          </mxGeometry>
        </mxCell>
        <mxCell id="vOPPiTswCpq5w0hIhfVt-8" value="" style="endArrow=classic;html=1;rounded=0;dashed=1;" edge="1" parent="1">
          <mxGeometry relative="1" as="geometry">
            <mxPoint x="420" y="90" as="sourcePoint" />
            <mxPoint x="510" y="60" as="targetPoint" />
          </mxGeometry>
        </mxCell>
        <mxCell id="vOPPiTswCpq5w0hIhfVt-9" value="&amp;lt;extend&amp;gt;" style="edgeLabel;resizable=0;html=1;;align=center;verticalAlign=middle;" connectable="0" vertex="1" parent="vOPPiTswCpq5w0hIhfVt-8">
          <mxGeometry relative="1" as="geometry">
            <mxPoint x="4" as="offset" />
          </mxGeometry>
        </mxCell>
        <mxCell id="vOPPiTswCpq5w0hIhfVt-10" value="" style="endArrow=none;html=1;rounded=0;entryX=0;entryY=0.5;entryDx=0;entryDy=0;" edge="1" parent="1">
          <mxGeometry width="50" height="50" relative="1" as="geometry">
            <mxPoint x="160" y="100" as="sourcePoint" />
            <mxPoint x="323" y="50" as="targetPoint" />
          </mxGeometry>
        </mxCell>
        <mxCell id="vOPPiTswCpq5w0hIhfVt-11" value="" style="endArrow=classic;html=1;rounded=0;dashed=1;entryX=0;entryY=0.5;entryDx=0;entryDy=0;exitX=1;exitY=0.5;exitDx=0;exitDy=0;" edge="1" parent="1" source="vQDLI2uZCtYbKvxVfyRI-33" target="vOPPiTswCpq5w0hIhfVt-5">
          <mxGeometry relative="1" as="geometry">
            <mxPoint x="740" y="100" as="sourcePoint" />
            <mxPoint x="520" y="110" as="targetPoint" />
          </mxGeometry>
        </mxCell>
        <mxCell id="vOPPiTswCpq5w0hIhfVt-12" value="&amp;lt;include&amp;gt;" style="edgeLabel;resizable=0;html=1;;align=center;verticalAlign=middle;" connectable="0" vertex="1" parent="vOPPiTswCpq5w0hIhfVt-11">
          <mxGeometry relative="1" as="geometry">
            <mxPoint x="4" as="offset" />
          </mxGeometry>
        </mxCell>
        <mxCell id="vOPPiTswCpq5w0hIhfVt-13" value="" style="endArrow=classic;html=1;rounded=0;dashed=1;entryX=0;entryY=0.5;entryDx=0;entryDy=0;exitX=1;exitY=0.5;exitDx=0;exitDy=0;" edge="1" parent="1" source="vQDLI2uZCtYbKvxVfyRI-43" target="vOPPiTswCpq5w0hIhfVt-15">
          <mxGeometry relative="1" as="geometry">
            <mxPoint x="700" y="620" as="sourcePoint" />
            <mxPoint x="797" y="590" as="targetPoint" />
          </mxGeometry>
        </mxCell>
        <mxCell id="vOPPiTswCpq5w0hIhfVt-14" value="&amp;lt;include&amp;gt;" style="edgeLabel;resizable=0;html=1;;align=center;verticalAlign=middle;" connectable="0" vertex="1" parent="vOPPiTswCpq5w0hIhfVt-13">
          <mxGeometry relative="1" as="geometry">
            <mxPoint x="4" as="offset" />
          </mxGeometry>
        </mxCell>
        <mxCell id="vOPPiTswCpq5w0hIhfVt-15" value="Verificar información" style="ellipse;whiteSpace=wrap;html=1;" vertex="1" parent="1">
          <mxGeometry x="730" y="555" width="90" height="60" as="geometry" />
        </mxCell>
        <mxCell id="vOPPiTswCpq5w0hIhfVt-16" value="Cambiar contraseña" style="ellipse;whiteSpace=wrap;html=1;" vertex="1" parent="1">
          <mxGeometry x="900" y="520" width="90" height="60" as="geometry" />
        </mxCell>
        <mxCell id="vOPPiTswCpq5w0hIhfVt-19" value="" style="endArrow=classic;html=1;rounded=0;dashed=1;entryX=0;entryY=0.5;entryDx=0;entryDy=0;exitX=1;exitY=0.5;exitDx=0;exitDy=0;" edge="1" parent="1" source="vOPPiTswCpq5w0hIhfVt-15" target="vOPPiTswCpq5w0hIhfVt-16">
          <mxGeometry relative="1" as="geometry">
            <mxPoint x="320" y="110" as="sourcePoint" />
            <mxPoint x="410" y="80" as="targetPoint" />
          </mxGeometry>
        </mxCell>
        <mxCell id="vOPPiTswCpq5w0hIhfVt-20" value="&amp;lt;include&amp;gt;" style="edgeLabel;resizable=0;html=1;;align=center;verticalAlign=middle;" connectable="0" vertex="1" parent="vOPPiTswCpq5w0hIhfVt-19">
          <mxGeometry relative="1" as="geometry">
            <mxPoint x="4" as="offset" />
          </mxGeometry>
        </mxCell>
      </root>
    </mxGraphModel>
  </diagram>
</mxfile>
